HIERARCHY
ROOT Hips
{
	OFFSET 0.00000 0.00000 0.00000
	CHANNELS 6 Xposition Yposition Zposition Zrotation Yrotation Xrotation 
	JOINT LHipJoint
	{
		OFFSET 0 0 0
		CHANNELS 3 Zrotation Yrotation Xrotation
		JOINT LeftHip
		{
			OFFSET 1.56741 -1.82513 0.67319
			CHANNELS 3 Zrotation Yrotation Xrotation
			JOINT LeftKnee
			{
				OFFSET 2.35708 -6.47604 0.00000
				CHANNELS 3 Zrotation Yrotation Xrotation
				JOINT LeftAnkle
				{
					OFFSET 2.70636 -7.43567 0.00000
					CHANNELS 3 Zrotation Yrotation Xrotation
					JOINT LeftToe
					{
						OFFSET 0.20427 -0.56122 2.08535
						CHANNELS 3 Zrotation Yrotation Xrotation
						End Site
						{
							OFFSET 0.00000 -0.00000 1.08535
						}
					}
				}
			}
		}
	}
	JOINT RHipJoint
	{
		OFFSET 0 0 0
		CHANNELS 3 Zrotation Yrotation Xrotation
		JOINT RightHip
		{
			OFFSET -1.51422 -1.82513 0.67319
			CHANNELS 3 Zrotation Yrotation Xrotation
			JOINT RightKnee
			{
				OFFSET -2.48824 -6.83638 0.00000
				CHANNELS 3 Zrotation Yrotation Xrotation
				JOINT RightAnkle
				{
					OFFSET -2.70033 -7.41909 0.00000
					CHANNELS 3 Zrotation Yrotation Xrotation
					JOINT RightToe
					{
						OFFSET -0.19750 -0.54263 2.22151
						CHANNELS 3 Zrotation Yrotation Xrotation
						End Site
						{
							OFFSET -0.00000 -0.00000 1.14915
						}
					}
				}
			}
		}
	}
	JOINT lowerback
	{
		OFFSET 0 0 0
		CHANNELS 3 Zrotation Yrotation Xrotation
		JOINT Chest
		{
			OFFSET -0.01567 2.12874 -0.15842
			CHANNELS 3 Zrotation Yrotation Xrotation
			JOINT Chest2
			{
				OFFSET 0.06098 2.13326 -0.01043
				CHANNELS 3 Zrotation Yrotation Xrotation
				JOINT lowerneck
				{
					OFFSET 0 0 0
					CHANNELS 3 Zrotation Yrotation Xrotation
					JOINT Neck
					{
						OFFSET -0.05040 1.78432 0.13387
						CHANNELS 3 Zrotation Yrotation Xrotation
						JOINT Head
						{
							OFFSET -0.00180 1.76880 -0.33303
							CHANNELS 3 Zrotation Yrotation Xrotation
							End Site
							{
								OFFSET 0.00734 1.81249 -0.12719
							}
						}
					}
				}
				JOINT LeftCollar
				{
					OFFSET 0 0 0
					CHANNELS 3 Zrotation Yrotation Xrotation
					JOINT LeftShoulder
					{
						OFFSET 3.72199 0.94188 -0.54317
CHANNELS 3 Zrotation Xrotation Yrotation
						JOINT LeftElbow
						{
OFFSET 0 -5.146010 0.000000
CHANNELS 3 Zrotation Xrotation Yrotation
							JOINT LeftWrist
							{
OFFSET 0 -3.644520 -0.000000
CHANNELS 3 Zrotation Xrotation Yrotation
								JOINT lhand
								{
									OFFSET 0 0 0
CHANNELS 3 Zrotation Xrotation Yrotation
									JOINT LFingers
									{
OFFSET 0 -0.562280 0.000000
CHANNELS 3 Zrotation Xrotation Yrotation
										End Site
										{
OFFSET 0 -0.453320 0.000000
										}
									}
								}
								JOINT LThumb
								{
OFFSET 0 0.000000 0.000000
CHANNELS 3 Zrotation Xrotation Yrotation
									End Site
									{
OFFSET 0 -0.460250 0.460250
									}
								}
							}
						}
					}
				}
				JOINT RightCollar
				{
					OFFSET 0 0 0
					CHANNELS 3 Zrotation Yrotation Xrotation
					JOINT RightShoulder
					{
						OFFSET -3.30253 1.22679 -0.46941
CHANNELS 3 Zrotation Xrotation Yrotation
						JOINT RightElbow
						{
OFFSET 0 -5.339130 0.000000
CHANNELS 3 Zrotation Xrotation Yrotation
							JOINT RightWrist
							{
OFFSET 0 -3.564780 -0.000000
CHANNELS 3 Zrotation Xrotation Yrotation
								JOINT rhand
								{
									OFFSET 0 0 0
CHANNELS 3 Zrotation Xrotation Yrotation
									JOINT RFingers
									{
OFFSET 0 -0.857470 0.000000
CHANNELS 3 Zrotation Xrotation Yrotation
										End Site
										{
OFFSET 0 -0.691320 0.000000
										}
									}
								}
								JOINT RThumb
								{
OFFSET 0 0.000000 0.000000
CHANNELS 3 Zrotation Xrotation Yrotation
									End Site
									{
OFFSET 0 -0.701870 0.701870
									}
								}
							}
						}
					}
				}
			}
		}
	}
}
MOTION
Frames: 9
Frame Time: 0.008333333333333333
1.096500 17.190100 38.374800 174.420000 12.543300 -178.766000 0.000000 0.000000 0.000000 -30.660000 -5.499400 -9.156800 2.204600 9.279800 26.674700 0.652200 -6.126300 -14.409300 0.008400 0.593500 1.630900 0.000000 0.000000 0.000000 10.519500 9.877300 -36.323200 -6.480700 -14.878500 46.881800 -0.128300 -3.924100 -9.360300 -0.142700 -2.434900 6.709100 -5.490700 -0.365300 9.479500 1.844300 -0.818100 1.954100 5.120600 -0.295800 -3.167500 -2.293400 6.007600 -13.702600 -3.241500 10.673200 22.212700 0.605500 4.770200 9.337700 -0.000000 -0.000000 0.000000 2.177200 -8.129000 -32.235400 21.699600 -32.635900 6.423100 14.171100 8.475200 -28.350800 0.000000 0.000000 0.000000 -7.125000 0.000000 0.000000 -18.391100 58.117900 6.035800 -0.000000 -0.000000 0.000000 -1.004200 4.068100 4.230600 -15.981800 -25.496000 -3.638100 -8.987900 21.164300 -1.248500 0.000000 0.000000 0.000000 7.125000 0.000000 -0.000000 13.587800 28.600100 5.569500
1.531732 17.299816 37.383406 173.163720 7.622761 -177.850295 0.000000 0.000000 0.000000 -31.173614 -3.301342 -0.557776 0.826382 5.799250 16.203235 0.375764 -9.408103 -11.911264 0.000930 0.197724 0.543326 0.000000 0.000000 0.000000 4.609307 14.816710 -34.185386 -1.918186 -8.690118 24.832929 0.521337 -13.996864 -11.575067 -0.473240 -4.411575 12.237646 -6.819442 -0.346514 8.993526 1.652445 -0.897882 1.984961 5.674681 -0.339293 -2.833184 -2.574842 5.918174 -13.214815 -3.501312 10.452994 20.703531 0.478756 4.664602 8.726017 0.000000 0.000000 0.000000 3.614683 -6.207188 -37.295798 23.458604 -34.586465 7.396923 13.050574 6.512007 -26.393966 0.000000 0.000000 0.000000 -7.125000 0.000000 0.000000 -18.314400 56.021087 5.081035 0.000000 0.000000 0.000000 -1.822346 5.686989 7.224054 -18.398689 -28.664521 -4.738988 -11.147575 17.484864 1.819686 0.000000 0.000000 0.000000 7.125000 0.000000 0.000000 12.324031 31.677251 4.098427
1.969915 17.155359 36.325881 172.742735 3.460630 -177.409184 0.000000 0.000000 0.000000 -30.192039 -3.879478 4.981452 0.630346 5.079727 14.136189 0.355410 -11.858415 -12.621086 0.033916 -1.167104 -3.208922 0.000000 0.000000 0.000000 3.888154 11.013651 -35.279605 -1.783039 -8.398273 23.930852 0.666628 -16.101884 -13.961540 -0.122265 -2.236452 6.160186 -6.306313 -0.186172 8.216754 1.269433 -0.538960 2.623074 4.922956 -0.199310 -1.798324 -2.310066 6.147360 -12.598263 -3.218955 10.497770 19.730521 0.482562 4.765743 8.276790 0.000000 0.000000 0.000000 3.479585 -5.367664 -34.879357 21.741607 -32.683288 6.446027 14.832157 10.796725 -26.261861 0.000000 0.000000 0.000000 -7.125000 0.000000 0.000000 -16.440458 56.251573 4.644793 0.000000 0.000000 0.000000 -3.583634 3.447022 6.090785 -17.795987 -27.895147 -4.453440 -10.753155 18.498786 1.682665 0.000000 0.000000 0.000000 7.125000 0.000000 0.000000 12.614227 31.530691 4.245950
2.466223 17.200515 35.165110 173.577130 4.467287 -177.282295 0.000000 0.000000 0.000000 -28.546829 -3.713071 9.706837 0.592116 4.926245 13.698345 0.284970 -9.136445 -10.696183 0.947003 -6.194024 -17.349547 0.000000 0.000000 0.000000 8.119782 6.756956 -37.400885 -2.887782 -10.511213 30.648462 0.630383 -14.010782 -7.095020 -0.263461 -3.301961 9.120657 -5.121128 1.267683 8.524789 1.310383 1.485250 2.747262 4.087657 0.820645 -2.080876 -1.423468 6.604247 -11.916724 -3.384381 10.840566 18.791807 0.273570 5.001094 7.896887 0.000000 0.000000 0.000000 0.814284 -2.138909 -23.088495 17.667909 -27.729546 4.393767 17.592752 13.908172 -31.696482 0.000000 0.000000 0.000000 -7.125000 0.000000 0.000000 -17.170284 62.104489 7.261979 0.000000 0.000000 0.000000 -5.631710 2.231694 4.668057 -17.833627 -27.943554 -4.471028 -11.201004 18.291959 1.760855 0.000000 0.000000 0.000000 7.125000 0.000000 0.000000 12.273026 31.620314 4.099062
3.106654 17.454508 33.818186 175.191806 4.610506 -176.806404 0.000000 0.000000 0.000000 -25.092212 -4.983960 9.550074 1.360114 7.380320 20.847832 -0.174227 -9.443221 -2.818912 2.090587 -9.050942 -25.955741 0.000000 0.000000 0.000000 12.663833 4.144622 -34.994351 -3.373113 -11.275700 33.215610 0.280202 -9.755646 -6.607761 -0.614724 -5.002198 13.918080 -3.423384 2.129337 8.062782 1.586888 2.767726 2.487023 3.287161 1.454989 -2.176063 -2.154369 7.566789 -12.566656 -2.007896 10.855831 19.560217 0.804283 4.568120 8.130643 0.000000 0.000000 0.000000 0.728224 2.867997 -15.045315 13.800561 -22.448586 2.751697 14.358931 12.772919 -29.671907 0.000000 0.000000 0.000000 -7.125000 0.000000 0.000000 -19.113183 59.409068 6.881044 0.000000 0.000000 0.000000 -6.596787 2.671495 4.619148 -19.543771 -30.088517 -5.300883 -12.044791 15.602303 1.122570 0.000000 0.000000 0.000000 7.125000 0.000000 0.000000 11.525402 31.003283 4.014234
3.781206 17.347412 32.524940 177.229785 4.454542 -177.839202 0.000000 0.000000 0.000000 -20.375476 -6.417184 4.497750 4.089629 12.273795 36.714526 -0.186711 -10.288282 11.093024 2.724642 -10.235418 -29.742464 0.000000 0.000000 0.000000 17.124775 2.372690 -32.900064 -4.709939 -13.049207 39.553517 -0.050266 -6.175963 -10.038676 -1.105643 -6.680006 18.771146 -1.933331 2.427691 8.391587 2.368801 3.383640 3.151484 3.197531 1.783603 -1.685853 -1.516489 8.024198 -12.218406 -1.979017 11.340350 19.875801 0.758805 4.839389 8.208333 0.000000 0.000000 0.000000 1.618186 7.902620 -13.987438 12.509978 -20.564993 2.278242 11.585438 15.986738 -31.439120 0.000000 0.000000 0.000000 -7.125000 0.000000 0.000000 -23.407796 60.398367 9.081641 0.000000 0.000000 0.000000 -8.831993 0.598264 6.588010 -20.969239 -31.792316 -6.033839 -14.578988 12.545816 -6.948823 0.000000 0.000000 0.000000 7.125000 0.000000 0.000000 8.951922 22.812984 4.805232
4.369535 17.217060 31.391438 179.885279 4.671375 -179.879386 0.000000 0.000000 0.000000 -15.421779 -10.122202 -6.712045 9.834988 17.315326 58.934508 -0.421654 -13.814225 13.386479 1.871797 -8.593223 -24.531304 0.000000 0.000000 0.000000 22.101109 0.313320 -28.532277 -5.554528 -13.982333 43.166608 -0.434915 -4.703255 -15.075494 -0.616783 -5.026284 13.983514 -0.590056 2.972788 9.665407 4.061749 4.515703 4.612786 4.061662 2.446762 -0.984915 -1.109909 7.876216 -11.627218 -2.515253 11.138730 19.597870 0.470898 4.742880 8.067473 0.000000 0.000000 0.000000 0.376397 9.422271 -15.758438 13.047466 -21.356662 2.470545 11.044594 13.655979 -30.897846 0.000000 0.000000 0.000000 -7.125000 0.000000 0.000000 -23.520714 59.780806 8.779720 0.000000 0.000000 0.000000 -13.263710 -3.304685 7.217273 -22.410852 -33.437408 -6.811228 -13.509898 12.336801 -2.131793 0.000000 0.000000 0.000000 7.125000 0.000000 0.000000 10.047718 27.739417 4.273860
4.722430 17.209603 30.393290 181.768013 8.412611 -180.200484 0.000000 0.000000 0.000000 -13.406898 -10.649369 -18.229894 12.668867 18.659328 68.093941 -0.200435 -8.034326 1.449579 1.447316 -7.604924 -21.520440 0.000000 0.000000 0.000000 25.556654 0.207001 -23.315803 -5.313799 -13.728429 42.160842 -0.758760 -3.225521 -17.931092 -0.451079 -4.306586 11.941237 0.801347 4.550448 9.950935 4.724302 6.830968 4.884192 3.698872 3.648317 -0.957636 -1.201740 7.478444 -11.819523 -1.717069 10.437024 20.783019 0.701818 4.419862 8.440169 0.000000 0.000000 0.000000 -1.887781 8.982121 -15.246384 14.549008 -23.513908 3.043815 13.319671 12.052028 -30.656499 0.000000 0.000000 0.000000 -7.125000 0.000000 0.000000 -20.950658 60.088715 7.919567 0.000000 0.000000 0.000000 -14.885686 -5.860729 4.107516 -22.706505 -33.766303 -6.974524 -16.022363 13.464092 -1.716281 0.000000 0.000000 0.000000 7.125000 0.000000 0.000000 8.155753 28.159141 3.370225
4.967262 17.370671 29.442081 183.277272 10.571697 -179.341172 0.000000 0.000000 0.000000 -13.061509 -13.644254 -26.038355 9.929038 17.368268 59.248875 0.061932 -5.575507 -5.544122 0.926266 -6.130852 -17.164676 0.000000 0.000000 0.000000 28.236999 1.893432 -16.154708 -4.125163 -12.324855 36.891424 -0.825943 -5.335356 -19.911264 -0.523924 -4.638710 12.880921 2.771792 4.678967 10.110765 4.151278 7.084399 3.853830 1.923837 3.733959 -1.829064 -1.797701 6.495496 -11.896252 -1.185350 9.039689 20.950492 0.825014 3.742534 8.449325 0.000000 0.000000 0.000000 -2.120133 9.044995 -18.414310 15.994791 -25.513438 3.643787 10.887568 8.310680 -30.026833 0.000000 0.000000 0.000000 -7.125000 0.000000 0.000000 -22.992698 58.951288 8.113458 0.000000 0.000000 0.000000 -12.664150 -6.006925 4.963371 -22.331956 -33.350076 -6.767449 -16.915290 11.867230 -5.000549 0.000000 0.000000 0.000000 7.125000 0.000000 0.000000 7.344246 24.728079 3.546478
